<svg width="230" height="230" viewBox="0 0 230 230" fill="none" xmlns="http://www.w3.org/2000/svg">
<path d="M110.957 7.1875V17.5824C112.305 17.5465 113.652 17.5195 115 17.5195C116.348 17.5195 117.695 17.5465 119.043 17.5824V7.1875H110.957ZM115 25.6055C97.5703 25.6055 81.8027 29.1184 70.6172 33.4219C65.0469 35.5736 60.5996 37.941 57.7246 39.9984C55.209 41.8268 54.5352 43.4709 54.4004 43.2059L57.5 63.7891C68.8652 66.7539 79.1973 66.5742 89.2598 64.6426L90.7871 72.5488C80.7695 74.5254 70.168 74.8848 58.8027 72.4141L68.9551 140.111C74.5254 142.357 81.8477 142.807 88.1367 142.941L87.957 151.027C82.8359 150.938 76.457 150.758 70.3027 149.096L71.6055 157.855C73.7617 158.799 77.8496 160.012 81.8477 160.686C86.9687 161.494 92.5391 161.674 93.8418 161.494L95.0098 169.49C91.3711 170.029 86.2051 169.58 80.5449 168.637C77.9395 168.232 75.3789 167.783 72.998 167.109L75.7383 185.303C76.6816 186.605 81.2188 189.391 88.2715 191.008C95.6836 192.715 105.342 193.613 115 193.613C124.658 193.613 134.316 192.715 141.729 191.008C148.781 189.391 153.318 186.605 154.262 185.303L155.834 174.881C152.824 176.004 149.635 176.857 146.445 177.441C139.258 178.789 132.25 178.969 127.129 177.936L128.656 170.029C132.07 170.658 138.674 170.658 144.963 169.49C149.59 168.637 154.082 167.064 157.271 165.178L164.998 113.787C143.346 121.559 127.803 120.66 112.889 120.346L113.068 112.26C129.24 112.619 143.795 113.697 166.391 104.668L173.713 55.748C155.295 64.9121 131.217 65.0918 110.553 63.2949L111.271 55.209C133.553 57.2305 159.203 56.0625 175.24 45.5508L175.6 43.2059C175.465 43.4709 174.791 41.8268 172.275 39.9984C169.4 37.941 164.953 35.5736 159.383 33.4219C148.197 29.1184 132.43 25.6055 115 25.6055V25.6055ZM80.7695 90.7422C83.4199 91.3711 90.9219 92 98.5586 92.1348C106.195 92.2246 114.371 91.9102 118.998 91.1465L120.256 99.1426C114.596 100.041 106.375 100.311 98.4687 100.221C90.5176 100.086 83.2852 99.6816 78.8828 98.6484L80.7695 90.7422V90.7422ZM146.58 137.596L147.838 141.459L149.096 145.322C135.934 149.59 118.504 150.803 106.061 148.332L106.824 144.379L107.588 140.426C118.055 142.447 135.125 141.324 146.58 137.596ZM110.957 201.654V222.812H119.043V201.654C117.695 201.699 116.348 201.699 115 201.699C113.652 201.699 112.305 201.699 110.957 201.654Z" fill="#FA7F39" fill-opacity="0.1"/>
</svg>
